<svg xmlns="http://www.w3.org/2000/svg" viewBox="0 0 146.5 129.81"><defs><style>.cls-1{fill:#fff;}</style></defs><title>Asset 1</title><g id="Layer_2" data-name="Layer 2"><g id="Слой_1" data-name="Слой 1"><path class="cls-1" d="M124.55,76.84H10.45C4.68,76.84,0,71.5,0,64.9H0C0,58.31,4.68,53,10.45,53h114.1C130.32,53,135,58.31,135,64.9h0C135,71.5,130.32,76.84,124.55,76.84Z"/><path class="cls-1" d="M75.86,126.31h0a12.27,12.27,0,0,1,0-16.89l34.75-36.07a12.27,12.27,0,0,0,0-16.89L75.86,20.39a12.27,12.27,0,0,1,0-16.89h0a11.19,11.19,0,0,1,16.26,0l51,53a12.27,12.27,0,0,1,0,16.89l-51,53A11.2,11.2,0,0,1,75.86,126.31Z"/></g></g></svg>