<svg xmlns="http://www.w3.org/2000/svg" fill="#fff" viewBox="0 0 288.82 278"><title>Asset 1</title><g id="Layer_2" data-name="Layer 2"><g id="Layer_1-2" data-name="Layer 1"><rect x="85.02" width="38" height="38" rx="19"/><rect x="26.04" y="27.99" width="37.43" height="107.48" rx="15.59" transform="translate(70.9 -7.71) rotate(45)"/><rect x="106.26" y="-22.26" width="37.43" height="199.83" rx="18.72" transform="translate(91.51 -65.63) rotate(45)"/><rect x="1.02" y="162" width="38" height="38" rx="19"/><rect x="169.08" y="20.37" width="37.43" height="156.91" rx="16.83" transform="translate(124.88 -103.85) rotate(45)"/><rect x="55.75" y="154.59" width="37.43" height="95.14" rx="13.82" transform="translate(164.76 6.56) rotate(45)"/><rect x="164" y="49.26" width="37.43" height="261.31" rx="18.72" transform="translate(180.73 -76.5) rotate(45)"/><rect x="160.02" y="240" width="38" height="38" rx="19"/><rect x="227.75" y="142.02" width="36.02" height="103.42" rx="15" transform="translate(208.97 -117.03) rotate(45)"/></g></g></svg>